<svg xmlns="http://www.w3.org/2000/svg" viewBox="0 0 720 720" width="720" height="720"><rect class="bg" x="0" y="0" width="720" height="720" fill="#ffffff"/><g fill="#ffffff" stroke="#1b1b1b" stroke-width="2" stroke-linejoin="round" stroke-linecap="round"><path class="contorno" fill="none" d="M 464.74 24.00 L 468.37 28.83 L 468.78 30.15 L 473.61 32.82 L 477.73 28.83 L 478.45 28.25 L 483.12 24.00"/><path class="contorno" fill="none" d="M 468.81 691.17 L 473.61 687.23 L 477.71 691.17 L 478.45 691.76 L 483.12 696.00"/><path class="contorno" fill="none" d="M 465.86 24.00 L 468.78 27.55 L 470.32 28.83 L 473.61 31.50 L 476.36 28.83 L 478.45 27.15 L 481.91 24.00"/><path class="contorno" fill="none" d="M 470.43 691.17 L 473.61 688.56 L 476.32 691.17 L 478.45 692.86 L 481.90 696.00"/><path class="contorno" fill="none" d="M 466.98 24.00 L 468.78 26.19 L 471.95 28.83 L 473.61 30.18 L 475.00 28.83 L 478.45 26.04 L 480.69 24.00"/><path class="contorno" fill="none" d="M 472.05 691.17 L 473.61 689.89 L 474.94 691.17 L 478.45 693.97 L 480.68 696.00"/><path class="contorno" fill="none" d="M 468.09 24.00 L 468.78 24.83 L 473.58 28.83 L 473.61 28.86 L 478.45 24.94 L 479.48 24.00"/><path class="contorno" fill="none" d="M 468.14 696.00 L 468.78 695.24 L 473.61 691.20 L 478.45 695.08 L 479.46 696.00"/><rect x="24" y="24" width="672" height="672" fill="none"/></g></svg>