<svg xmlns="http://www.w3.org/2000/svg" viewBox="0 0 720 720" width="720" height="720"><rect class="bg" x="0" y="0" width="720" height="720" fill="#ffffff"/><g fill="#ffffff" stroke="#1b1b1b" stroke-width="2.2" stroke-linejoin="round" stroke-linecap="round"><rect class="region" x="0.00" y="581.00" width="720.00" height="139.00"/><path fill="none" d="M 612.87 616.45 q 16 -8 32 0 q 16 8 32 0"/><path fill="none" d="M 591.60 679.89 q 16 -8 32 0 q 16 8 32 0"/><path fill="none" d="M 495.98 629.64 q 16 -8 32 0 q 16 8 32 0"/><path fill="none" d="M 662.01 615.26 q 16 -8 32 0 q 16 8 32 0"/><path fill="none" d="M 455.25 677.08 q 16 -8 32 0 q 16 8 32 0"/><path fill="none" d="M 422.85 631.89 q 16 -8 32 0 q 16 8 32 0"/><path class="region" d="M 141.44 82.31 A 37.80 37.80 0 1 0 141.44 150.71 A 48.60 48.60 0 0 1 141.44 82.31 Z"/><path class="region" d="M 221.21 135.68 a 46.13 46.13 0 0 1 44.95 -32.47 a 42.46 42.46 0 0 1 72.43 2.50 a 32.47 32.47 0 0 1 29.97 29.97 Z"/><path class="region" d="M 284.86 161.16 a 30.23 30.23 0 0 1 32.22 -23.27 a 30.43 30.43 0 0 1 51.90 1.79 a 23.27 23.27 0 0 1 21.48 21.48 Z"/><path class="region" d="M 623.36 583.59 L 631.06 512.97 L 654.17 512.97 L 661.88 583.59 Z"/><rect class="region" x="628.49" y="532.23" width="28.25" height="8.99"/><rect class="region" x="628.49" y="557.91" width="28.25" height="8.99"/><rect class="region" x="631.06" y="497.56" width="23.11" height="15.41"/><polygon class="region" points="628.49,497.56 642.62,484.72 656.74,497.56"/><path class="region" d="M 457.39 591.26 L 466.08 511.60 L 492.15 511.60 L 500.84 591.26 Z"/><rect class="region" x="463.19" y="533.32" width="31.86" height="10.14"/><rect class="region" x="463.19" y="562.29" width="31.86" height="10.14"/><rect class="region" x="466.08" y="494.22" width="26.07" height="17.38"/><polygon class="region" points="463.19,494.22 479.12,479.73 495.05,494.22"/><g transform="rotate(0.95 238.21 609.22)"><path class="region" d="M 230.14 609.22 q -6.05 -70.58 14.12 -110.91 l 8.07 4 q -16.13 40.33 -6.05 106.88 Z"/><path class="region" d="M 244.26 498.31 q -42.42 -21.79 -66.18 -16.34 q 25.45 10.08 64.48 16.34 Z"/><path class="region" d="M 244.26 498.31 q -24.17 -35.39 -37.70 -26.54 q 14.50 10.08 36.74 26.54 Z"/><path class="region" d="M 244.26 498.31 q 0.00 -40.33 0.00 -30.25 q -0.00 10.08 -0.00 30.25 Z"/><path class="region" d="M 244.26 498.31 q 24.17 -35.39 37.70 -26.54 q -14.50 10.08 -36.74 26.54 Z"/><path class="region" d="M 244.26 498.31 q 42.42 -21.79 66.18 -16.34 q -25.45 10.08 -64.48 16.34 Z"/></g><g transform="rotate(0.22 248.21 611.23)"><path class="region" d="M 239.96 611.23 q -6.19 -72.24 14.45 -113.52 l 8.26 4 q -16.51 41.28 -6.19 109.39 Z"/><path class="region" d="M 254.40 497.71 q -43.42 -22.30 -67.73 -16.73 q 26.05 10.32 66.00 16.73 Z"/><path class="region" d="M 254.40 497.71 q -24.74 -36.23 -38.59 -27.17 q 14.84 10.32 37.60 27.17 Z"/><path class="region" d="M 254.40 497.71 q 0.00 -41.28 0.00 -30.96 q -0.00 10.32 -0.00 30.96 Z"/><path class="region" d="M 254.40 497.71 q 24.74 -36.23 38.59 -27.17 q -14.84 10.32 -37.60 27.17 Z"/><path class="region" d="M 254.40 497.71 q 43.42 -22.30 67.73 -16.73 q -26.05 10.32 -66.00 16.73 Z"/></g><g transform="rotate(0.41 652.52 613.73)"><polygon class="region" points="625.50,613.73 632.26,588.04 655.23,582.70 675.49,600.22 680.90,613.73"/></g><g transform="rotate(0.21 244.91 613.98)"><polygon class="region" points="192.66,613.98 244.91,526.89 297.17,613.98"/><polygon class="region" points="244.91,526.89 251.88,613.98 237.95,613.98"/><line x1="244.91" y1="526.89" x2="244.91" y2="512.96"/><polygon class="region" points="244.91,512.96 260.59,518.18 244.91,523.41"/></g><path class="region" d="M 403.28 615.39 L 415.07 507.29 L 450.45 507.29 L 462.25 615.39 Z"/><rect class="region" x="411.14" y="536.77" width="43.24" height="13.76"/><rect class="region" x="411.14" y="576.08" width="43.24" height="13.76"/><rect class="region" x="415.07" y="483.70" width="35.38" height="23.59"/><polygon class="region" points="411.14,483.70 432.76,464.04 454.39,483.70"/><path class="region" d="M 420.41 616.78 L 432.38 507.04 L 468.30 507.04 L 480.27 616.78 Z"/><rect class="region" x="428.39" y="536.97" width="43.90" height="13.97"/><rect class="region" x="428.39" y="576.88" width="43.90" height="13.97"/><rect class="region" x="432.38" y="483.09" width="35.92" height="23.94"/><polygon class="region" points="428.39,483.09 450.34,463.14 472.29,483.09"/><g transform="rotate(-1.92 357.97 620.96)"><polygon class="region" points="301.68,620.96 357.97,527.14 414.27,620.96"/><polygon class="region" points="357.97,527.14 365.48,620.96 350.47,620.96"/><line x1="357.97" y1="527.14" x2="357.97" y2="512.13"/><polygon class="region" points="357.97,512.13 374.86,517.76 357.97,523.39"/></g><g transform="rotate(2.50 668.82 620.97)"><polygon class="region" points="612.52,620.97 668.82,527.14 725.12,620.97"/><polygon class="region" points="668.82,527.14 676.33,620.97 661.31,620.97"/><line x1="668.82" y1="527.14" x2="668.82" y2="512.13"/><polygon class="region" points="668.82,512.13 685.71,517.76 668.82,523.39"/></g><g transform="rotate(-2.58 588.72 625.05)"><polygon class="region" points="558.31,625.05 565.91,598.15 591.77,595.41 614.58,609.84 620.66,625.05"/></g><g transform="rotate(1.00 100.83 626.22)"><path class="region" d="M 91.16 626.22 q -7.25 -84.61 16.92 -132.96 l 9.67 4 q -19.34 48.35 -7.25 128.12 Z"/><path class="region" d="M 108.08 493.27 q -50.85 -26.12 -79.33 -19.59 q 30.51 12.09 77.30 19.59 Z"/><path class="region" d="M 108.08 493.27 q -28.97 -42.43 -45.20 -31.82 q 17.38 12.09 44.04 31.82 Z"/><path class="region" d="M 108.08 493.27 q 0.00 -48.35 0.00 -36.26 q -0.00 12.09 -0.00 36.26 Z"/><path class="region" d="M 108.08 493.27 q 28.97 -42.43 45.20 -31.82 q -17.38 12.09 -44.04 31.82 Z"/><path class="region" d="M 108.08 493.27 q 50.85 -26.12 79.33 -19.59 q -30.51 12.09 -77.30 19.59 Z"/></g><g transform="rotate(1.61 261.40 630.52)"><polygon class="region" points="199.58,630.52 261.40,527.48 323.22,630.52"/><polygon class="region" points="261.40,527.48 269.64,630.52 253.16,630.52"/><line x1="261.40" y1="527.48" x2="261.40" y2="511.00"/><polygon class="region" points="261.40,511.00 279.95,517.18 261.40,523.36"/></g><g transform="rotate(2.43 510.09 643.24)"><polygon class="region" points="440.91,643.24 510.09,527.94 579.27,643.24"/><polygon class="region" points="510.09,527.94 519.31,643.24 500.87,643.24"/><line x1="510.09" y1="527.94" x2="510.09" y2="509.49"/><polygon class="region" points="510.09,509.49 530.84,516.41 510.09,523.33"/></g><path class="region" d="M 141.20 652.58 q 0 -28.80 47.43 -25.41 q 33.88 1.69 47.43 25.41 q -33.88 16.94 -94.87 0 Z"/><polygon class="region" points="230.98,633.95 251.31,618.70 241.15,642.42"/><circle class="region" cx="159.83" cy="645.81" r="4.24"/><path fill="none" d="M 163.22 628.86 q -5.08 -18.63 6.78 -22.02"/><path class="region" d="M 553.85 687.55 a 25.14 25.14 0 0 1 -25.14 -20.95 q 25.14 -15.36 50.28 0 a 25.14 25.14 0 0 1 -25.14 20.95 Z"/><line x1="553.85" y1="686.15" x2="531.50" y2="654.02"/><line x1="553.85" y1="686.15" x2="542.68" y2="654.02"/><line x1="553.85" y1="686.15" x2="553.85" y2="654.02"/><line x1="553.85" y1="686.15" x2="565.03" y2="654.02"/><line x1="553.85" y1="686.15" x2="576.20" y2="654.02"/><rect x="14" y="14" width="692" height="692" fill="none"/></g></svg>