<svg xmlns="http://www.w3.org/2000/svg" viewBox="0 0 720 720" width="720" height="720"><rect class="bg" x="0" y="0" width="720" height="720" fill="#ffffff"/><g fill="#ffffff" stroke="#1b1b1b" stroke-width="2.4" stroke-linejoin="round" stroke-linecap="round"><circle class="region" cx="360" cy="360" r="32.77"/><path class="region" d="M 533.95 436.90 m -34.79 0 a 34.79 34.79 0 0 1 69.57 0 Z"/><polygon class="region" points="529.07,465.45 508.56,450.99 507.08,425.95 525.74,409.17 550.49,413.30 562.69,435.22 553.16,458.43"/><circle class="region" cx="541.58" cy="465.51" r="16.75"/><polygon class="region" points="534.69,428.82 520.52,417.63 526.78,400.70 544.82,401.42 549.71,418.79"/><circle class="region" cx="551.87" cy="509.86" r="42.29"/><circle class="region" cx="585.83" cy="369.98" r="51.06"/><path class="region" d="M 528.95 407.25 m -34.22 0 a 34.22 34.22 0 0 1 68.44 0 Z"/><path class="region" d="M 537.38 428.63 m -34.79 0 a 34.79 34.79 0 0 1 69.57 0 Z"/><polygon class="region" points="533.93,457.23 512.75,443.77 510.07,418.83 527.90,401.18 552.82,404.11 566.06,425.43 557.65,449.07"/><circle class="region" cx="563.01" cy="413.79" r="16.75"/><polygon class="region" points="518.22,461.09 506.47,447.39 515.86,431.98 533.42,436.15 534.88,454.14"/><circle class="region" cx="601.63" cy="389.71" r="42.29"/><circle class="region" cx="526.74" cy="512.63" r="51.06"/><path class="region" d="M 512.87 446.05 m -34.22 0 a 34.22 34.22 0 0 1 68.44 0 Z"/><path class="region" d="M 428.63 537.38 m -34.79 0 a 34.79 34.79 0 0 1 69.57 0 Z"/><polygon class="region" points="404.99,554.11 400.71,529.39 417.37,510.63 442.42,511.96 457.01,532.38 450.13,556.51 426.98,566.18"/><circle class="region" cx="413.79" cy="563.01" r="16.75"/><polygon class="region" points="434.87,532.19 432.75,514.26 449.15,506.71 461.40,519.97 452.57,535.72"/><circle class="region" cx="389.71" cy="601.63" r="42.29"/><circle class="region" cx="512.63" cy="526.74" r="51.06"/><path class="region" d="M 446.05 512.87 m -34.22 0 a 34.22 34.22 0 0 1 68.44 0 Z"/><path class="region" d="M 436.90 533.95 m -34.79 0 a 34.79 34.79 0 0 1 69.57 0 Z"/><polygon class="region" points="414.23,551.74 408.77,527.25 424.52,507.71 449.61,507.84 465.15,527.54 459.44,551.97 436.78,562.74"/><circle class="region" cx="465.51" cy="541.58" r="16.75"/><polygon class="region" points="400.40,543.36 401.77,525.36 419.31,521.10 428.78,536.47 417.10,550.22"/><circle class="region" cx="509.86" cy="551.87" r="42.29"/><circle class="region" cx="369.98" cy="585.83" r="51.06"/><path class="region" d="M 407.25 528.95 m -34.22 0 a 34.22 34.22 0 0 1 68.44 0 Z"/><path class="region" d="M 283.10 533.95 m -34.79 0 a 34.79 34.79 0 0 1 69.57 0 Z"/><polygon class="region" points="254.55,529.07 269.01,508.56 294.05,507.08 310.83,525.74 306.70,550.49 284.78,562.69 261.57,553.16"/><circle class="region" cx="254.49" cy="541.58" r="16.75"/><polygon class="region" points="291.18,534.69 302.37,520.52 319.30,526.78 318.58,544.82 301.21,549.71"/><circle class="region" cx="210.14" cy="551.87" r="42.29"/><circle class="region" cx="350.02" cy="585.83" r="51.06"/><path class="region" d="M 312.75 528.95 m -34.22 0 a 34.22 34.22 0 0 1 68.44 0 Z"/><path class="region" d="M 291.37 537.38 m -34.79 0 a 34.79 34.79 0 0 1 69.57 0 Z"/><polygon class="region" points="262.77,533.93 276.23,512.75 301.17,510.07 318.82,527.90 315.89,552.82 294.57,566.06 270.93,557.65"/><circle class="region" cx="306.21" cy="563.01" r="16.75"/><polygon class="region" points="258.91,518.22 272.61,506.47 288.02,515.86 283.85,533.42 265.86,534.88"/><circle class="region" cx="330.29" cy="601.63" r="42.29"/><circle class="region" cx="207.37" cy="526.74" r="51.06"/><path class="region" d="M 273.95 512.87 m -34.22 0 a 34.22 34.22 0 0 1 68.44 0 Z"/><path class="region" d="M 182.62 428.63 m -34.79 0 a 34.79 34.79 0 0 1 69.57 0 Z"/><polygon class="region" points="165.89,404.99 190.61,400.71 209.37,417.37 208.04,442.42 187.62,457.01 163.49,450.13 153.82,426.98"/><circle class="region" cx="156.99" cy="413.79" r="16.75"/><polygon class="region" points="187.81,434.87 205.74,432.75 213.29,449.15 200.03,461.40 184.28,452.57"/><circle class="region" cx="118.37" cy="389.71" r="42.29"/><circle class="region" cx="193.26" cy="512.63" r="51.06"/><path class="region" d="M 207.13 446.05 m -34.22 0 a 34.22 34.22 0 0 1 68.44 0 Z"/><path class="region" d="M 186.05 436.90 m -34.79 0 a 34.79 34.79 0 0 1 69.57 0 Z"/><polygon class="region" points="168.26,414.23 192.75,408.77 212.29,424.52 212.16,449.61 192.46,465.15 168.03,459.44 157.26,436.78"/><circle class="region" cx="178.42" cy="465.51" r="16.75"/><polygon class="region" points="176.64,400.40 194.64,401.77 198.90,419.31 183.53,428.78 169.78,417.10"/><circle class="region" cx="168.13" cy="509.86" r="42.29"/><circle class="region" cx="134.17" cy="369.98" r="51.06"/><path class="region" d="M 191.05 407.25 m -34.22 0 a 34.22 34.22 0 0 1 68.44 0 Z"/><path class="region" d="M 186.05 283.10 m -34.79 0 a 34.79 34.79 0 0 1 69.57 0 Z"/><polygon class="region" points="190.93,254.55 211.44,269.01 212.92,294.05 194.26,310.83 169.51,306.70 157.31,284.78 166.84,261.57"/><circle class="region" cx="178.42" cy="254.49" r="16.75"/><polygon class="region" points="185.31,291.18 199.48,302.37 193.22,319.30 175.18,318.58 170.29,301.21"/><circle class="region" cx="168.13" cy="210.14" r="42.29"/><circle class="region" cx="134.17" cy="350.02" r="51.06"/><path class="region" d="M 191.05 312.75 m -34.22 0 a 34.22 34.22 0 0 1 68.44 0 Z"/><path class="region" d="M 182.62 291.37 m -34.79 0 a 34.79 34.79 0 0 1 69.57 0 Z"/><polygon class="region" points="186.07,262.77 207.25,276.23 209.93,301.17 192.10,318.82 167.18,315.89 153.94,294.57 162.35,270.93"/><circle class="region" cx="156.99" cy="306.21" r="16.75"/><polygon class="region" points="201.78,258.91 213.53,272.61 204.14,288.02 186.58,283.85 185.12,265.86"/><circle class="region" cx="118.37" cy="330.29" r="42.29"/><circle class="region" cx="193.26" cy="207.37" r="51.06"/><path class="region" d="M 207.13 273.95 m -34.22 0 a 34.22 34.22 0 0 1 68.44 0 Z"/><path class="region" d="M 291.37 182.62 m -34.79 0 a 34.79 34.79 0 0 1 69.57 0 Z"/><polygon class="region" points="315.01,165.89 319.29,190.61 302.63,209.37 277.58,208.04 262.99,187.62 269.87,163.49 293.02,153.82"/><circle class="region" cx="306.21" cy="156.99" r="16.75"/><polygon class="region" points="285.13,187.81 287.25,205.74 270.85,213.29 258.60,200.03 267.43,184.28"/><circle class="region" cx="330.29" cy="118.37" r="42.29"/><circle class="region" cx="207.37" cy="193.26" r="51.06"/><path class="region" d="M 273.95 207.13 m -34.22 0 a 34.22 34.22 0 0 1 68.44 0 Z"/><path class="region" d="M 283.10 186.05 m -34.79 0 a 34.79 34.79 0 0 1 69.57 0 Z"/><polygon class="region" points="305.77,168.26 311.23,192.75 295.48,212.29 270.39,212.16 254.85,192.46 260.56,168.03 283.22,157.26"/><circle class="region" cx="254.49" cy="178.42" r="16.75"/><polygon class="region" points="319.60,176.64 318.23,194.64 300.69,198.90 291.22,183.53 302.90,169.78"/><circle class="region" cx="210.14" cy="168.13" r="42.29"/><circle class="region" cx="350.02" cy="134.17" r="51.06"/><path class="region" d="M 312.75 191.05 m -34.22 0 a 34.22 34.22 0 0 1 68.44 0 Z"/><path class="region" d="M 436.90 186.05 m -34.79 0 a 34.79 34.79 0 0 1 69.57 0 Z"/><polygon class="region" points="465.45,190.93 450.99,211.44 425.95,212.92 409.17,194.26 413.30,169.51 435.22,157.31 458.43,166.84"/><circle class="region" cx="465.51" cy="178.42" r="16.75"/><polygon class="region" points="428.82,185.31 417.63,199.48 400.70,193.22 401.42,175.18 418.79,170.29"/><circle class="region" cx="509.86" cy="168.13" r="42.29"/><circle class="region" cx="369.98" cy="134.17" r="51.06"/><path class="region" d="M 407.25 191.05 m -34.22 0 a 34.22 34.22 0 0 1 68.44 0 Z"/><path class="region" d="M 428.63 182.62 m -34.79 0 a 34.79 34.79 0 0 1 69.57 0 Z"/><polygon class="region" points="457.23,186.07 443.77,207.25 418.83,209.93 401.18,192.10 404.11,167.18 425.43,153.94 449.07,162.35"/><circle class="region" cx="413.79" cy="156.99" r="16.75"/><polygon class="region" points="461.09,201.78 447.39,213.53 431.98,204.14 436.15,186.58 454.14,185.12"/><circle class="region" cx="389.71" cy="118.37" r="42.29"/><circle class="region" cx="512.63" cy="193.26" r="51.06"/><path class="region" d="M 446.05 207.13 m -34.22 0 a 34.22 34.22 0 0 1 68.44 0 Z"/><path class="region" d="M 537.38 291.37 m -34.79 0 a 34.79 34.79 0 0 1 69.57 0 Z"/><polygon class="region" points="554.11,315.01 529.39,319.29 510.63,302.63 511.96,277.58 532.38,262.99 556.51,269.87 566.18,293.02"/><circle class="region" cx="563.01" cy="306.21" r="16.75"/><polygon class="region" points="532.19,285.13 514.26,287.25 506.71,270.85 519.97,258.60 535.72,267.43"/><circle class="region" cx="601.63" cy="330.29" r="42.29"/><circle class="region" cx="526.74" cy="207.37" r="51.06"/><path class="region" d="M 512.87 273.95 m -34.22 0 a 34.22 34.22 0 0 1 68.44 0 Z"/><path class="region" d="M 533.95 283.10 m -34.79 0 a 34.79 34.79 0 0 1 69.57 0 Z"/><polygon class="region" points="551.74,305.77 527.25,311.23 507.71,295.48 507.84,270.39 527.54,254.85 551.97,260.56 562.74,283.22"/><circle class="region" cx="541.58" cy="254.49" r="16.75"/><polygon class="region" points="543.36,319.60 525.36,318.23 521.10,300.69 536.47,291.22 550.22,302.90"/><circle class="region" cx="551.87" cy="210.14" r="42.29"/><circle class="region" cx="585.83" cy="350.02" r="51.06"/><path class="region" d="M 528.95 312.75 m -34.22 0 a 34.22 34.22 0 0 1 68.44 0 Z"/><circle cx="360" cy="360" r="340" fill="none"/></g></svg>