<svg xmlns="http://www.w3.org/2000/svg" viewBox="0 0 720 720" width="720" height="720"><rect class="bg" x="0" y="0" width="720" height="720" fill="#ffffff"/><g fill="#ffffff" stroke="#1b1b1b" stroke-width="2.2" stroke-linejoin="round" stroke-linecap="round"><circle class="region" cx="27.84" cy="252.73" r="1.65"/><circle class="region" cx="549.36" cy="266.57" r="2.47"/><circle class="region" cx="116.50" cy="145.84" r="2.61"/><circle class="region" cx="140.34" cy="46.31" r="2.93"/><circle class="region" cx="343.24" cy="439.73" r="3.26"/><circle class="region" cx="233.01" cy="382.58" r="2.07"/><circle class="region" cx="483.94" cy="291.64" r="3.16"/><circle class="region" cx="388.76" cy="6.43" r="3.25"/><circle class="region" cx="223.49" cy="519.00" r="3.04"/><circle class="region" cx="302.82" cy="395.93" r="1.81"/><circle class="region" cx="264.90" cy="400.38" r="1.50"/><circle class="region" cx="6.02" cy="264.98" r="3.23"/><circle class="region" cx="434.14" cy="377.86" r="3.07"/><circle class="region" cx="420.74" cy="322.30" r="1.64"/><circle class="region" cx="268.05" cy="294.14" r="3.18"/><circle class="region" cx="297.35" cy="257.04" r="2.49"/><circle class="region" cx="411.03" cy="429.95" r="3.21"/><circle class="region" cx="478.51" cy="206.25" r="2.88"/><circle class="region" cx="503.89" cy="258.33" r="3.46"/><circle class="region" cx="634.14" cy="394.79" r="2.85"/><circle class="region" cx="685.88" cy="423.90" r="1.61"/><circle class="region" cx="47.63" cy="297.83" r="3.23"/><circle class="region" cx="248.27" cy="299.27" r="2.08"/><circle class="region" cx="333.57" cy="305.80" r="2.66"/><circle class="region" cx="281.60" cy="418.94" r="1.85"/><circle class="region" cx="685.88" cy="356.26" r="3.00"/><circle class="region" cx="554.39" cy="33.86" r="2.32"/><circle class="region" cx="111.35" cy="382.65" r="3.05"/><circle class="region" cx="447.26" cy="546.60" r="3.48"/><circle class="region" cx="705.82" cy="322.87" r="3.27"/><circle class="region" cx="684.24" cy="450.70" r="2.13"/><circle class="region" cx="450.52" cy="522.95" r="2.28"/><circle class="region" cx="431.18" cy="78.02" r="2.76"/><circle class="region" cx="394.08" cy="142.05" r="3.26"/><circle class="region" cx="35.36" cy="469.91" r="1.68"/><circle class="region" cx="305.56" cy="492.77" r="1.56"/><circle class="region" cx="482.62" cy="57.17" r="2.08"/><circle class="region" cx="715.22" cy="289.95" r="1.86"/><circle class="region" cx="3.71" cy="87.52" r="2.80"/><circle class="region" cx="453.72" cy="458.56" r="2.88"/><line x1="0.00" y1="554.00" x2="720.00" y2="554.00"/><circle class="region" cx="535.40" cy="115.02" r="30.40"/><ellipse class="region" transform="rotate(-20 535.40 115.02)" cx="535.40" cy="115.02" rx="52.80" ry="12.80" fill="none"/><g transform="rotate(2.74 423.34 278.87)"><path class="region" d="M 423.34 223.50 q 23.73 33.62 0 71.19 q -23.73 -37.57 0 -71.19 Z"/><circle class="region" cx="423.34" cy="265.03" r="10.88"/><polygon class="region" points="407.52,284.80 391.70,306.55 407.52,296.67"/><polygon class="region" points="439.16,284.80 454.98,306.55 439.16,296.67"/></g><g transform="rotate(-0.74 164.32 548.79)"><polygon class="region" points="151.03,548.79 151.03,536.75 155.72,531.59 160.41,536.75 160.41,548.79"/><polygon class="region" points="159.63,548.79 159.63,532.37 164.32,525.34 169.01,532.37 169.01,548.79"/><polygon class="region" points="168.23,548.79 168.23,536.75 172.92,531.59 177.61,536.75 177.61,548.79"/></g><g transform="rotate(-0.22 389.91 549.33)"><polygon class="region" points="376.49,549.33 376.49,537.16 381.22,531.95 385.96,537.16 385.96,549.33"/><polygon class="region" points="385.17,549.33 385.17,532.74 389.91,525.63 394.65,532.74 394.65,549.33"/><polygon class="region" points="393.86,549.33 393.86,537.16 398.60,531.95 403.34,537.16 403.34,549.33"/></g><g transform="rotate(1.63 595.40 556.87)"><polygon class="region" points="580.05,556.87 580.05,542.96 585.46,537.00 590.88,542.96 590.88,556.87"/><polygon class="region" points="589.98,556.87 589.98,537.91 595.40,529.78 600.82,537.91 600.82,556.87"/><polygon class="region" points="599.91,556.87 599.91,542.96 605.33,537.00 610.75,542.96 610.75,556.87"/></g><g transform="rotate(-0.53 121.53 557.34)"><polygon class="region" points="106.05,557.34 106.05,543.32 111.51,537.32 116.97,543.32 116.97,557.34"/><polygon class="region" points="116.06,557.34 116.06,538.23 121.53,530.04 126.99,538.23 126.99,557.34"/><polygon class="region" points="126.08,557.34 126.08,543.32 131.54,537.32 137.00,543.32 137.00,557.34"/></g><g transform="rotate(-2.93 469.49 567.46)"><polygon class="region" points="451.43,567.46 451.43,551.11 457.80,544.10 464.18,551.11 464.18,567.46"/><polygon class="region" points="463.11,567.46 463.11,545.16 469.49,535.60 475.86,545.16 475.86,567.46"/><polygon class="region" points="474.79,567.46 474.79,551.11 481.17,544.10 487.54,551.11 487.54,567.46"/></g><g transform="rotate(-1.78 219.33 570.65)"><polygon class="region" points="200.46,570.65 200.46,553.56 207.12,546.24 213.78,553.56 213.78,570.65"/><polygon class="region" points="212.67,570.65 212.67,547.35 219.33,537.36 225.99,547.35 225.99,570.65"/><polygon class="region" points="224.88,570.65 224.88,553.56 231.54,546.24 238.20,553.56 238.20,570.65"/></g><g transform="rotate(-0.38 358.44 574.83)"><polygon class="region" points="338.51,574.83 338.51,556.78 345.54,549.04 352.58,556.78 352.58,574.83"/><polygon class="region" points="351.40,574.83 351.40,550.21 358.44,539.66 365.47,550.21 365.47,574.83"/><polygon class="region" points="364.30,574.83 364.30,556.78 371.34,549.04 378.37,556.78 378.37,574.83"/></g><g transform="rotate(-0.99 81.26 575.00)"><polygon class="region" points="61.29,575.00 61.29,556.90 68.34,549.15 75.39,556.90 75.39,575.00"/><polygon class="region" points="74.21,575.00 74.21,550.32 81.26,539.75 88.31,550.32 88.31,575.00"/><polygon class="region" points="87.13,575.00 87.13,556.90 94.18,549.15 101.23,556.90 101.23,575.00"/></g><g transform="rotate(-0.30 255.52 602.55)"><polygon class="region" points="228.52,602.55 228.52,578.09 238.05,567.61 247.58,578.09 247.58,602.55"/><polygon class="region" points="245.99,602.55 245.99,569.20 255.52,554.90 265.05,569.20 265.05,602.55"/><polygon class="region" points="263.46,602.55 263.46,578.09 272.99,567.61 282.52,578.09 282.52,602.55"/></g><g transform="rotate(2.79 100.38 614.55)"><polygon class="region" points="70.32,614.55 70.32,587.32 80.92,575.65 91.53,587.32 91.53,614.55"/><polygon class="region" points="89.77,614.55 89.77,577.42 100.38,561.50 110.99,577.42 110.99,614.55"/><polygon class="region" points="109.22,614.55 109.22,587.32 119.83,575.65 130.44,587.32 130.44,614.55"/></g><g transform="rotate(2.42 612.37 615.21)"><polygon class="region" points="582.15,615.21 582.15,587.82 592.82,576.09 603.48,587.82 603.48,615.21"/><polygon class="region" points="601.71,615.21 601.71,577.87 612.37,561.86 623.04,577.87 623.04,615.21"/><polygon class="region" points="621.27,615.21 621.27,587.82 631.93,576.09 642.60,587.82 642.60,615.21"/></g><g transform="rotate(-2.38 90.45 617.25)"><polygon class="region" points="59.70,617.25 59.70,589.40 70.55,577.46 81.41,589.40 81.41,617.25"/><polygon class="region" points="79.60,617.25 79.60,579.27 90.45,562.99 101.30,579.27 101.30,617.25"/><polygon class="region" points="99.50,617.25 99.50,589.40 110.35,577.46 121.20,589.40 121.20,617.25"/></g><rect x="14" y="14" width="692" height="692" fill="none"/></g></svg>