<svg xmlns="http://www.w3.org/2000/svg" viewBox="0 0 720 720" width="720" height="720"><rect class="bg" x="0" y="0" width="720" height="720" fill="#ffffff"/><g fill="#ffffff" stroke="#1b1b1b" stroke-width="2.4" stroke-linejoin="round" stroke-linecap="round"><path class="region" d="M 617.50 360.00 Q 635.50 273.52 680.00 360.00 Q 635.50 446.48 617.50 360.00 Z"/><path class="region" d="M 583.00 488.75 Q 641.83 422.85 637.13 520.00 Q 555.35 572.64 583.00 488.75 Z"/><path class="region" d="M 488.75 583.00 Q 572.64 555.35 520.00 637.13 Q 422.85 641.83 488.75 583.00 Z"/><path class="region" d="M 360.00 617.50 Q 446.48 635.50 360.00 680.00 Q 273.52 635.50 360.00 617.50 Z"/><path class="region" d="M 231.25 583.00 Q 297.15 641.83 200.00 637.13 Q 147.36 555.35 231.25 583.00 Z"/><path class="region" d="M 137.00 488.75 Q 164.65 572.64 82.87 520.00 Q 78.17 422.85 137.00 488.75 Z"/><path class="region" d="M 102.50 360.00 Q 84.50 446.48 40.00 360.00 Q 84.50 273.52 102.50 360.00 Z"/><path class="region" d="M 137.00 231.25 Q 78.17 297.15 82.87 200.00 Q 164.65 147.36 137.00 231.25 Z"/><path class="region" d="M 231.25 137.00 Q 147.36 164.65 200.00 82.87 Q 297.15 78.17 231.25 137.00 Z"/><path class="region" d="M 360.00 102.50 Q 273.52 84.50 360.00 40.00 Q 446.48 84.50 360.00 102.50 Z"/><path class="region" d="M 488.75 137.00 Q 422.85 78.17 520.00 82.87 Q 572.64 164.65 488.75 137.00 Z"/><path class="region" d="M 583.00 231.25 Q 555.35 147.36 637.13 200.00 Q 641.83 297.15 583.00 231.25 Z"/><path class="region" d="M 548.36 410.47 Q 586.11 367.90 608.73 426.65 Q 559.77 466.21 548.36 410.47 Z"/><path class="region" d="M 497.89 497.89 Q 551.87 479.90 542.08 542.08 Q 479.90 551.87 497.89 497.89 Z"/><path class="region" d="M 410.47 548.36 Q 466.21 559.77 426.65 608.73 Q 367.90 586.11 410.47 548.36 Z"/><path class="region" d="M 309.53 548.36 Q 352.10 586.11 293.35 608.73 Q 253.79 559.77 309.53 548.36 Z"/><path class="region" d="M 222.11 497.89 Q 240.10 551.87 177.92 542.08 Q 168.13 479.90 222.11 497.89 Z"/><path class="region" d="M 171.64 410.47 Q 160.23 466.21 111.27 426.65 Q 133.89 367.90 171.64 410.47 Z"/><path class="region" d="M 171.64 309.53 Q 133.89 352.10 111.27 293.35 Q 160.23 253.79 171.64 309.53 Z"/><path class="region" d="M 222.11 222.11 Q 168.13 240.10 177.92 177.92 Q 240.10 168.13 222.11 222.11 Z"/><path class="region" d="M 309.53 171.64 Q 253.79 160.23 293.35 111.27 Q 352.10 133.89 309.53 171.64 Z"/><path class="region" d="M 410.47 171.64 Q 367.90 133.89 426.65 111.27 Q 466.21 160.23 410.47 171.64 Z"/><path class="region" d="M 497.89 222.11 Q 479.90 168.13 542.08 177.92 Q 551.87 240.10 497.89 222.11 Z"/><path class="region" d="M 548.36 309.53 Q 559.77 253.79 608.73 293.35 Q 586.11 352.10 548.36 309.53 Z"/><path class="region" d="M 492.50 360.00 Q 520.07 325.50 555.00 360.00 Q 520.07 394.50 492.50 360.00 Z"/><path class="region" d="M 474.75 426.25 Q 515.88 410.16 528.87 457.50 Q 481.38 469.91 474.75 426.25 Z"/><path class="region" d="M 426.25 474.75 Q 469.91 481.38 457.50 528.87 Q 410.16 515.88 426.25 474.75 Z"/><path class="region" d="M 360.00 492.50 Q 394.50 520.07 360.00 555.00 Q 325.50 520.07 360.00 492.50 Z"/><path class="region" d="M 293.75 474.75 Q 309.84 515.88 262.50 528.87 Q 250.09 481.38 293.75 474.75 Z"/><path class="region" d="M 245.25 426.25 Q 238.62 469.91 191.13 457.50 Q 204.12 410.16 245.25 426.25 Z"/><path class="region" d="M 227.50 360.00 Q 199.93 394.50 165.00 360.00 Q 199.93 325.50 227.50 360.00 Z"/><path class="region" d="M 245.25 293.75 Q 204.12 309.84 191.13 262.50 Q 238.62 250.09 245.25 293.75 Z"/><path class="region" d="M 293.75 245.25 Q 250.09 238.62 262.50 191.13 Q 309.84 204.12 293.75 245.25 Z"/><path class="region" d="M 360.00 227.50 Q 325.50 199.93 360.00 165.00 Q 394.50 199.93 360.00 227.50 Z"/><path class="region" d="M 426.25 245.25 Q 410.16 204.12 457.50 191.13 Q 469.91 238.62 426.25 245.25 Z"/><path class="region" d="M 474.75 293.75 Q 481.38 250.09 528.87 262.50 Q 515.88 309.84 474.75 293.75 Z"/><path class="region" d="M 427.61 378.12 Q 461.02 366.86 487.99 394.29 Q 450.91 404.57 427.61 378.12 Z"/><path class="region" d="M 409.50 409.50 Q 444.05 416.45 453.69 453.69 Q 416.45 444.05 409.50 409.50 Z"/><path class="region" d="M 378.12 427.61 Q 404.57 450.91 394.29 487.99 Q 366.86 461.02 378.12 427.61 Z"/><path class="region" d="M 341.88 427.61 Q 353.14 461.02 325.71 487.99 Q 315.43 450.91 341.88 427.61 Z"/><path class="region" d="M 310.50 409.50 Q 303.55 444.05 266.31 453.69 Q 275.95 416.45 310.50 409.50 Z"/><path class="region" d="M 292.39 378.12 Q 269.09 404.57 232.01 394.29 Q 258.98 366.86 292.39 378.12 Z"/><path class="region" d="M 292.39 341.88 Q 258.98 353.14 232.01 325.71 Q 269.09 315.43 292.39 341.88 Z"/><path class="region" d="M 310.50 310.50 Q 275.95 303.55 266.31 266.31 Q 303.55 275.95 310.50 310.50 Z"/><path class="region" d="M 341.88 292.39 Q 315.43 269.09 325.71 232.01 Q 353.14 258.98 341.88 292.39 Z"/><path class="region" d="M 378.12 292.39 Q 366.86 258.98 394.29 232.01 Q 404.57 269.09 378.12 292.39 Z"/><path class="region" d="M 409.50 310.50 Q 416.45 275.95 453.69 266.31 Q 444.05 303.55 409.50 310.50 Z"/><path class="region" d="M 427.61 341.88 Q 450.91 315.43 487.99 325.71 Q 461.02 353.14 427.61 341.88 Z"/><path class="region" d="M 360.00 360.00 Q 394.20 352.57 430.00 360.00 Q 394.20 367.43 360.00 360.00 Z"/><path class="region" d="M 360.00 360.00 Q 393.33 370.67 420.62 395.00 Q 385.91 383.54 360.00 360.00 Z"/><path class="region" d="M 360.00 360.00 Q 383.54 385.91 395.00 420.62 Q 370.67 393.33 360.00 360.00 Z"/><path class="region" d="M 360.00 360.00 Q 367.43 394.20 360.00 430.00 Q 352.57 394.20 360.00 360.00 Z"/><path class="region" d="M 360.00 360.00 Q 349.33 393.33 325.00 420.62 Q 336.46 385.91 360.00 360.00 Z"/><path class="region" d="M 360.00 360.00 Q 334.09 383.54 299.38 395.00 Q 326.67 370.67 360.00 360.00 Z"/><path class="region" d="M 360.00 360.00 Q 325.80 367.43 290.00 360.00 Q 325.80 352.57 360.00 360.00 Z"/><path class="region" d="M 360.00 360.00 Q 326.67 349.33 299.38 325.00 Q 334.09 336.46 360.00 360.00 Z"/><path class="region" d="M 360.00 360.00 Q 336.46 334.09 325.00 299.38 Q 349.33 326.67 360.00 360.00 Z"/><path class="region" d="M 360.00 360.00 Q 352.57 325.80 360.00 290.00 Q 367.43 325.80 360.00 360.00 Z"/><path class="region" d="M 360.00 360.00 Q 370.67 326.67 395.00 299.38 Q 383.54 334.09 360.00 360.00 Z"/><path class="region" d="M 360.00 360.00 Q 385.91 336.46 420.62 325.00 Q 393.33 349.33 360.00 360.00 Z"/><circle class="region" cx="360" cy="360" r="28"/></g></svg>