<svg xmlns="http://www.w3.org/2000/svg" viewBox="0 0 720 720" width="720" height="720"><rect class="bg" x="0" y="0" width="720" height="720" fill="#ffffff"/><g fill="#ffffff" stroke="#1b1b1b" stroke-width="2.2" stroke-linejoin="round" stroke-linecap="round"><line x1="0.00" y1="556.00" x2="720.00" y2="556.00"/><line x1="556.38" y1="556.00" x2="552.38" y2="546.24"/><line x1="556.38" y1="556.00" x2="560.38" y2="543.01"/><line x1="61.30" y1="556.00" x2="57.30" y2="543.26"/><line x1="61.30" y1="556.00" x2="65.30" y2="542.24"/><line x1="329.84" y1="556.00" x2="325.84" y2="540.76"/><line x1="329.84" y1="556.00" x2="333.84" y2="546.16"/><line x1="561.50" y1="556.00" x2="557.50" y2="542.08"/><line x1="561.50" y1="556.00" x2="565.50" y2="542.72"/><line x1="9.95" y1="556.00" x2="5.95" y2="544.28"/><line x1="9.95" y1="556.00" x2="13.95" y2="545.60"/><line x1="645.52" y1="556.00" x2="641.52" y2="545.70"/><line x1="645.52" y1="556.00" x2="649.52" y2="541.96"/><line x1="520.91" y1="556.00" x2="516.91" y2="545.97"/><line x1="520.91" y1="556.00" x2="524.91" y2="547.85"/><line x1="571.33" y1="556.00" x2="567.33" y2="546.33"/><line x1="571.33" y1="556.00" x2="575.33" y2="545.82"/><line x1="88.75" y1="556.00" x2="84.75" y2="544.24"/><line x1="88.75" y1="556.00" x2="92.75" y2="540.07"/><line x1="176.74" y1="556.00" x2="172.74" y2="547.35"/><line x1="176.74" y1="556.00" x2="180.74" y2="541.21"/><line x1="228.26" y1="556.00" x2="224.26" y2="544.74"/><line x1="228.26" y1="556.00" x2="232.26" y2="540.11"/><line x1="195.82" y1="556.00" x2="191.82" y2="544.91"/><line x1="195.82" y1="556.00" x2="199.82" y2="546.26"/><line x1="625.84" y1="556.00" x2="621.84" y2="542.22"/><line x1="625.84" y1="556.00" x2="629.84" y2="540.97"/><line x1="368.32" y1="556.00" x2="364.32" y2="541.56"/><line x1="368.32" y1="556.00" x2="372.32" y2="542.81"/><line x1="100.53" y1="556.00" x2="96.53" y2="542.91"/><line x1="100.53" y1="556.00" x2="104.53" y2="543.38"/><line x1="226.93" y1="556.00" x2="222.93" y2="541.77"/><line x1="226.93" y1="556.00" x2="230.93" y2="543.12"/><line x1="5.85" y1="556.00" x2="1.85" y2="540.54"/><line x1="5.85" y1="556.00" x2="9.85" y2="545.27"/><line x1="252.08" y1="556.00" x2="248.08" y2="541.00"/><line x1="252.08" y1="556.00" x2="256.08" y2="546.01"/><line x1="126.16" y1="556.00" x2="122.16" y2="541.33"/><line x1="126.16" y1="556.00" x2="130.16" y2="545.77"/><line x1="718.77" y1="556.00" x2="714.77" y2="547.89"/><line x1="718.77" y1="556.00" x2="722.77" y2="545.19"/><line x1="546.12" y1="556.00" x2="542.12" y2="545.49"/><line x1="546.12" y1="556.00" x2="550.12" y2="542.71"/><line x1="55.28" y1="556.00" x2="51.28" y2="547.36"/><line x1="55.28" y1="556.00" x2="59.28" y2="542.12"/><line x1="377.80" y1="556.00" x2="373.80" y2="545.97"/><line x1="377.80" y1="556.00" x2="381.80" y2="540.56"/><line x1="35.66" y1="556.00" x2="31.66" y2="542.12"/><line x1="35.66" y1="556.00" x2="39.66" y2="540.37"/><line x1="205.36" y1="556.00" x2="201.36" y2="543.73"/><line x1="205.36" y1="556.00" x2="209.36" y2="541.15"/><line x1="609.71" y1="556.00" x2="605.71" y2="543.37"/><line x1="609.71" y1="556.00" x2="613.71" y2="540.35"/><line x1="505.79" y1="556.00" x2="501.79" y2="543.68"/><line x1="505.79" y1="556.00" x2="509.79" y2="547.12"/><line x1="211.71" y1="556.00" x2="207.71" y2="543.76"/><line x1="211.71" y1="556.00" x2="215.71" y2="546.76"/><line x1="181.52" y1="556.00" x2="177.52" y2="541.87"/><line x1="181.52" y1="556.00" x2="185.52" y2="546.89"/><line x1="57.64" y1="556.00" x2="53.64" y2="545.39"/><line x1="57.64" y1="556.00" x2="61.64" y2="541.56"/><circle class="region" cx="129.50" cy="84.88" r="36.00"/><line x1="172.70" y1="84.88" x2="202.68" y2="84.88"/><line x1="166.92" y1="106.48" x2="189.71" y2="119.94"/><line x1="151.10" y1="122.29" x2="159.94" y2="146.09"/><line x1="129.50" y1="128.08" x2="129.50" y2="153.00"/><line x1="107.90" y1="122.29" x2="99.00" y2="140.83"/><line x1="92.09" y1="106.48" x2="73.04" y2="114.95"/><line x1="86.30" y1="84.88" x2="64.04" y2="84.88"/><line x1="92.09" y1="63.28" x2="74.18" y2="49.66"/><line x1="107.90" y1="47.47" x2="99.43" y2="23.26"/><line x1="129.50" y1="41.68" x2="129.50" y2="18.11"/><line x1="151.10" y1="47.47" x2="165.16" y2="30.82"/><line x1="166.92" y1="63.28" x2="188.38" y2="54.45"/><path class="region" d="M 370.01 108.85 a 30.15 30.15 0 0 1 41.06 -29.66 a 38.78 38.78 0 0 1 66.16 2.28 a 29.66 29.66 0 0 1 27.38 27.38 Z"/><path class="region" d="M 174.30 174.32 a 33.66 33.66 0 0 1 40.38 -29.16 a 38.13 38.13 0 0 1 65.05 2.24 a 29.16 29.16 0 0 1 26.92 26.92 Z"/><g transform="rotate(-2.75 148.84 554.46)"><path class="region" d="M 133.77 541.91 a 15.07 12.55 0 0 1 30.13 0 Z"/><rect class="region" x="143.81" y="541.07" width="10.04" height="13.39"/><circle class="region" cx="150.30" cy="536.52" r="2.63"/><circle class="region" cx="153.45" cy="537.03" r="2.90"/></g><g transform="rotate(-0.02 277.85 557.45)"><line x1="277.85" y1="557.45" x2="277.85" y2="496.99"/><polygon class="region" points="289.94,496.99 300.56,501.59 300.56,492.38"/><polygon class="region" points="288.32,503.03 295.22,512.33 299.82,504.36"/><polygon class="region" points="283.89,507.46 285.22,518.96 293.19,514.36"/><polygon class="region" points="277.85,509.08 273.24,519.70 282.45,519.70"/><polygon class="region" points="271.80,507.46 262.50,514.36 270.48,518.96"/><polygon class="region" points="267.37,503.03 255.87,504.36 260.48,512.33"/><polygon class="region" points="265.75,496.99 255.13,492.38 255.13,501.59"/><polygon class="region" points="267.37,490.94 260.48,481.64 255.87,489.62"/><polygon class="region" points="271.80,486.52 270.48,475.01 262.50,479.62"/><polygon class="region" points="277.85,484.90 282.45,474.27 273.24,474.27"/><polygon class="region" points="283.89,486.52 293.19,479.62 285.22,475.01"/><polygon class="region" points="288.32,490.94 299.82,489.62 295.22,481.64"/><circle class="region" cx="277.85" cy="496.99" r="11.08"/></g><g transform="rotate(1.59 227.99 569.19)"><ellipse class="region" cx="227.99" cy="557.40" rx="12.69" ry="10.88"/><circle class="region" cx="218.92" cy="547.43" r="6.35"/><polygon class="region" points="216.20,541.99 218.92,536.55 221.64,541.99"/><polygon class="region" points="213.48,547.43 208.04,549.24 213.48,551.05"/><circle class="region" cx="216.47" cy="546.52" r="1.09"/><circle class="region" cx="221.37" cy="546.52" r="1.09"/><line x1="224.36" y1="569.19" x2="224.36" y2="563.75"/><line x1="231.62" y1="569.19" x2="231.62" y2="563.75"/></g><g transform="rotate(0.85 254.34 573.35)"><line x1="254.34" y1="573.35" x2="254.34" y2="511.74"/><circle class="region" cx="267.79" cy="511.74" r="8.96"/><circle class="region" cx="263.85" cy="521.24" r="8.96"/><circle class="region" cx="254.34" cy="525.18" r="8.96"/><circle class="region" cx="244.84" cy="521.24" r="8.96"/><circle class="region" cx="240.90" cy="511.74" r="8.96"/><circle class="region" cx="244.84" cy="502.23" r="8.96"/><circle class="region" cx="254.34" cy="498.29" r="8.96"/><circle class="region" cx="263.85" cy="502.23" r="8.96"/><circle class="region" cx="254.34" cy="511.74" r="8.96"/></g><g transform="rotate(-1.49 268.67 585.03)"><polygon class="region" points="230.45,585.03 230.45,559.12 234.99,552.65 239.52,559.12 239.52,585.03"/><polygon class="region" points="247.30,585.03 247.30,559.12 251.83,552.65 256.37,559.12 256.37,585.03"/><polygon class="region" points="264.14,585.03 264.14,559.12 268.67,552.65 273.21,559.12 273.21,585.03"/><polygon class="region" points="280.98,585.03 280.98,559.12 285.51,552.65 290.05,559.12 290.05,585.03"/><polygon class="region" points="297.82,585.03 297.82,559.12 302.36,552.65 306.89,559.12 306.89,585.03"/><line x1="229.81" y1="565.60" x2="307.54" y2="565.60"/><line x1="229.81" y1="575.97" x2="307.54" y2="575.97"/></g><g transform="rotate(2.37 223.09 591.04)"><ellipse class="region" cx="223.09" cy="555.41" rx="39.19" ry="26.72"/><ellipse class="region" cx="187.46" cy="541.16" rx="17.81" ry="16.03"/><polygon class="region" points="174.99,528.69 180.34,516.22 187.46,528.69"/><circle class="region" cx="181.05" cy="539.37" r="2.85"/><circle class="region" cx="193.88" cy="539.37" r="2.85"/><circle class="region" cx="228.64" cy="553.07" r="11.61"/><circle class="region" cx="237.94" cy="547.16" r="8.62"/><circle class="region" cx="246.12" cy="562.22" r="10.10"/><rect class="region" x="197.26" y="576.78" width="8.91" height="14.25"/><rect class="region" x="240.01" y="576.78" width="8.91" height="14.25"/></g><g transform="rotate(1.64 595.89 591.54)"><polygon class="region" points="568.03,591.54 575.00,567.58 598.68,559.80 619.58,577.61 625.15,591.54"/></g><g transform="rotate(-0.21 330.64 592.63)"><circle class="region" cx="298.42" cy="572.44" r="23.31"/><circle class="region" cx="330.64" cy="574.67" r="25.63"/><circle class="region" cx="362.86" cy="566.53" r="19.76"/></g><g transform="rotate(-2.88 459.63 593.29)"><rect class="region" x="447.46" y="522.32" width="24.33" height="70.97"/><circle class="region" cx="423.01" cy="486.96" r="38.45"/><circle class="region" cx="430.07" cy="494.81" r="48.48"/><circle class="region" cx="441.55" cy="466.52" r="51.61"/><circle class="region" cx="482.95" cy="500.89" r="39.37"/><circle class="region" cx="496.97" cy="453.80" r="55.17"/></g><g transform="rotate(-1.38 379.42 596.08)"><rect class="region" x="366.90" y="523.02" width="25.05" height="73.06"/><circle class="region" cx="381.50" cy="476.43" r="36.46"/><circle class="region" cx="366.11" cy="451.06" r="45.50"/><circle class="region" cx="368.80" cy="483.00" r="38.66"/></g><g transform="rotate(0.39 558.12 596.57)"><line x1="558.12" y1="596.57" x2="558.12" y2="523.14"/><path class="region" d="M 541.97 523.14 q 0 -22.03 16.15 -22.03 q 16.15 0 16.15 22.03 q -8.08 10.28 -16.15 0 q -8.08 10.28 -16.15 0 Z"/></g><g transform="rotate(0.41 312.78 596.99)"><ellipse class="region" cx="312.78" cy="575.08" rx="30.34" ry="23.60"/><circle class="region" cx="312.78" cy="546.42" r="23.60"/><ellipse class="region" cx="287.50" cy="549.80" rx="8.43" ry="18.54"/><ellipse class="region" cx="338.07" cy="549.80" rx="8.43" ry="18.54"/><circle class="region" cx="305.20" cy="544.74" r="3.37"/><circle class="region" cx="320.37" cy="544.74" r="3.37"/><circle class="region" cx="312.78" cy="554.85" r="5.06"/><rect class="region" x="293.40" y="583.51" width="8.43" height="13.48"/><rect class="region" x="323.74" y="583.51" width="8.43" height="13.48"/></g><g transform="rotate(-2.75 329.29 612.36)"><line x1="329.29" y1="612.36" x2="329.29" y2="527.09"/><path class="region" d="M 310.53 527.09 q 0 -25.58 18.76 -25.58 q 18.76 0 18.76 25.58 q -9.38 11.94 -18.76 0 q -9.38 11.94 -18.76 0 Z"/></g><g transform="rotate(-1.37 157.16 617.92)"><ellipse class="region" cx="157.16" cy="571.92" rx="50.60" ry="34.50"/><ellipse class="region" cx="111.16" cy="553.53" rx="23.00" ry="20.70"/><polygon class="region" points="95.06,537.43 101.96,521.33 111.16,537.43"/><circle class="region" cx="102.88" cy="551.23" r="3.68"/><circle class="region" cx="119.44" cy="551.23" r="3.68"/><circle class="region" cx="165.96" cy="567.01" r="12.81"/><circle class="region" cx="170.01" cy="573.64" r="10.51"/><circle class="region" cx="146.32" cy="572.36" r="15.62"/><circle class="region" cx="186.83" cy="572.28" r="10.64"/><rect class="region" x="123.81" y="599.52" width="11.50" height="18.40"/><rect class="region" x="179.01" y="599.52" width="11.50" height="18.40"/></g><rect x="14" y="14" width="692" height="692" fill="none"/></g></svg>